<svg width="219" height="183" viewBox="0 0 219 183" fill="none" xmlns="http://www.w3.org/2000/svg">
<path d="M13.2536 65.1983C14.983 67.3296 17.2882 68.5185 19.6856 68.5156C20.9188 68.503 22.1372 68.17 23.2673 67.5365C24.3975 66.903 25.416 65.9822 26.2613 64.8296L30.3675 59.4113C31.8996 59.8615 33.4961 59.7998 35.0043 59.2319C36.5126 58.664 37.882 57.6091 38.9819 56.1678L47.826 44.5203L54.0284 36.4849L49.0607 36.1901L36.4263 52.8504C35.6878 53.7927 34.7554 54.4456 33.7384 54.7328C32.7215 55.02 31.6618 54.9296 30.6834 54.4722C30.3381 54.3033 29.9622 54.2656 29.6006 54.3637C29.2391 54.4617 28.9073 54.6913 28.6447 55.0251L23.7632 61.5123C23.2559 62.1699 22.6521 62.6918 21.9867 63.048C21.3214 63.4042 20.6076 63.5876 19.8867 63.5876C19.1658 63.5876 18.452 63.4042 17.7866 63.048C17.1212 62.6918 16.5175 62.1699 16.0102 61.5123C15.5015 60.9034 15.1001 60.1619 14.8329 59.3377C14.6861 58.8981 14.4418 58.5238 14.1302 58.2616C13.8187 57.9994 13.4538 57.8609 13.0813 57.8633H12.6219C11.6687 57.8621 10.7293 57.5708 9.88071 57.0134C9.03217 56.4559 8.29865 55.6483 7.74035 54.6566C7.4864 54.2508 7.27418 53.8048 7.10871 53.3296C5.5807 52.9129 4.12238 52.1517 2.80151 51.0812C2.97545 54.0653 3.9683 56.8733 5.60349 59.006C7.23867 61.1388 9.41013 62.4579 11.7317 62.7288C12.1613 63.6262 12.6721 64.4551 13.2536 65.1983Z" fill="white"/>
<path d="M73.6405 0.0681024H71.7741C70.5691 -0.0227008 69.361 -0.0227008 68.156 0.0681024C60.8338 0.842146 38.379 5.78119 37.4314 5.96549C36.4838 6.37094 32.3776 8.84052 5.44325 24.9849C3.45473 26.2731 1.86241 28.3839 0.923382 30.9766C-0.0156419 33.5693 -0.246596 36.4926 0.267821 39.2745C0.782237 42.0563 2.012 44.5344 3.75857 46.3088C5.50514 48.0833 7.66659 49.0503 9.89399 49.0539C11.4099 49.0579 12.9052 48.6034 14.2587 47.7271L39.9008 31.3616L68.0699 31.6933L78.924 36.6693L58.8237 40.3552C56.341 40.7764 54.0746 42.389 52.4807 44.8686C50.8868 47.3481 50.0836 50.5106 50.2328 53.7196C50.382 56.9286 51.4725 59.946 53.2848 62.1646C55.0972 64.3832 57.4969 65.6383 60.0011 65.6775H61.1784L97.9905 59.3008C99.3135 59.1094 100.652 59.1966 101.953 59.5588L114.157 62.9867C119.025 64.3487 124.044 64.5735 128.974 63.6503L132.563 62.9867V58.0845L128.399 58.8585C123.977 59.6809 119.476 59.4937 115.104 58.3056L102.929 54.8778C101.204 54.3949 99.4285 54.2829 97.6746 54.546L60.8338 60.9595C60.0359 61.0665 59.2293 60.97 58.4605 60.6755C57.6917 60.381 56.9759 59.8944 56.3541 59.2436C55.7324 58.5927 55.217 57.7905 54.8375 56.8832C54.4581 55.9758 54.2222 54.9811 54.1432 53.9563C54.0515 52.9416 54.1171 51.9135 54.3363 50.9314C54.5555 49.9494 54.924 49.0329 55.4205 48.2345C55.9169 47.4361 56.5317 46.7718 57.2291 46.2798C57.9266 45.7879 58.693 45.478 59.4842 45.368L87.1077 40.1709C87.524 40.0988 87.9093 39.8486 88.2011 39.4606C88.4929 39.0727 88.6742 38.5697 88.7157 38.0331C88.7606 37.4931 88.6634 36.9493 88.4396 36.4884C88.2159 36.0275 87.8784 35.676 87.481 35.4898L69.161 26.9016C68.9513 26.8665 68.739 26.8665 68.5293 26.9016L39.585 26.5699C39.2868 26.5763 38.9931 26.6641 38.7235 26.8278L12.6793 43.4514C11.2158 44.3398 9.53839 44.4509 8.01143 43.7607C6.48446 43.0706 5.23136 41.6348 4.52437 39.7655C3.8217 37.9346 3.70791 35.8225 4.20749 33.8848C4.70708 31.9472 5.78005 30.3393 7.19489 29.408L38.4077 10.7573C40.8484 10.2412 61.7813 5.67066 68.5867 4.97033C69.6288 4.87899 70.6746 4.87899 71.7167 4.97033H73.6692C80.4172 5.15463 103.906 6.40782 122.312 14.6274H122.628L132.965 16.9127V11.9736L123.374 9.87256C104.997 1.72667 82.542 0.289222 73.7266 0.0312072L73.6405 0.0681024Z" fill="white"/>
<path d="M214.457 67.1884H160.703V7.51327H214.457V67.1884ZM216.352 2.64783H158.923C158.42 2.64783 157.938 2.9042 157.583 3.36042C157.227 3.81664 157.028 4.43536 157.028 5.08055V69.6211C157.028 70.2663 157.227 70.885 157.583 71.3412C157.938 71.7975 158.42 72.0538 158.923 72.0538H216.352C216.853 72.0443 217.33 71.7849 217.684 71.3308C218.038 70.8766 218.24 70.2633 218.247 69.6211V5.08055C218.24 4.43832 218.038 3.82506 217.684 3.37088C217.33 2.91671 216.853 2.65734 216.352 2.64783Z" fill="white"/>
<path d="M138.564 6.22314C138.069 6.22314 137.595 6.47563 137.244 6.92494C136.894 7.37425 136.698 7.98355 136.698 8.61897L136.411 66.0088C136.405 66.3245 136.451 66.6381 136.545 66.93C136.639 67.2218 136.779 67.4854 136.956 67.7043C137.125 67.9367 137.33 68.1222 137.557 68.249C137.784 68.3758 138.029 68.4413 138.277 68.4415H153.123V63.5761H140.201L140.459 11.0517H153.123V6.33372H138.593L138.564 6.22314Z" fill="white"/>
<path d="M13.2248 177.471C15.449 173.807 18.3374 170.897 21.6383 168.994C22.0137 168.775 22.3323 168.422 22.5562 167.978C22.7802 167.534 22.9001 167.016 22.9018 166.487V159.115H107.696V166.487C107.695 167.012 107.811 167.527 108.029 167.971C108.248 168.415 108.561 168.769 108.931 168.994C112.24 170.878 115.132 173.792 117.344 177.471H13.2248ZM112.003 164.792V156.388C111.996 155.657 111.767 154.96 111.364 154.443C110.962 153.927 110.419 153.633 109.85 153.623H20.8343C20.2654 153.633 19.722 153.927 19.3197 154.443C18.9174 154.96 18.6881 155.657 18.6807 156.388V164.792C15.6082 166.856 8.37207 172.569 8.37207 180.236C8.37951 180.966 8.60879 181.663 9.01107 182.18C9.41335 182.696 9.95681 182.99 10.5257 183H120.216C120.8 182.971 121.352 182.651 121.754 182.107C122.156 181.563 122.377 180.838 122.369 180.088C122.369 172.716 115.162 166.856 112.089 164.792H112.003Z" fill="white"/>
<path d="M65.0548 78.9099H65.5429C67.2341 78.9217 68.8749 79.6511 70.2096 80.9844C71.5444 82.3178 72.4982 84.1802 72.9226 86.2817H57.6751C58.0951 84.1771 59.0477 82.3111 60.3834 80.9768C61.7191 79.6425 63.3623 78.9154 65.0548 78.9099ZM75.3633 91.6631C75.9473 91.6343 76.4993 91.3138 76.9017 90.7698C77.304 90.2257 77.5249 89.5014 77.5169 88.7513C77.5169 86.7329 77.2072 84.7342 76.6055 82.8694C76.0037 81.0045 75.1217 79.3101 74.0098 77.8829C72.8979 76.4556 71.5779 75.3234 70.1252 74.5509C68.6724 73.7785 67.1153 73.381 65.5429 73.381H65.0548C63.4737 73.3858 61.9089 73.7915 60.4504 74.5749C58.9918 75.3583 57.6682 76.5038 56.5556 77.9458C55.4429 79.3877 54.5632 81.0976 53.9669 82.9772C53.3706 84.8569 53.0694 86.8692 53.0808 88.8987C53.0808 89.6319 53.3076 90.335 53.7115 90.8535C54.1154 91.3719 54.6632 91.6631 55.2344 91.6631H75.3633Z" fill="white"/>
<path d="M64.9974 100.215H65.4282C83.6332 100.215 104.825 111.604 105.973 143.451H24.5959C25.7732 111.862 46.8497 100.362 64.9974 100.215ZM20.3461 146.215C20.3423 146.579 20.3954 146.941 20.5022 147.279C20.6091 147.616 20.7676 147.923 20.9683 148.181C21.1691 148.438 21.408 148.642 21.671 148.779C21.9341 148.916 22.2159 148.984 22.4997 148.979H108.27C108.842 148.979 109.389 148.688 109.793 148.17C110.197 147.651 110.424 146.948 110.424 146.215C110.424 108.176 86.2175 94.6121 65.5143 94.6121H65.0548C42.801 94.7964 20.3461 110.83 20.3461 146.215Z" fill="white"/>
<path d="M29.5635 140.833H29.9655C30.4685 140.836 30.9564 140.613 31.3445 140.202C31.7326 139.791 31.9965 139.219 32.0904 138.585C33.0615 132.869 35.0931 127.539 38.0126 123.047C40.9321 118.555 44.6532 115.034 48.8597 112.783C49.1192 112.633 49.3525 112.417 49.5457 112.149C49.7389 111.881 49.8881 111.565 49.9845 111.221C50.081 110.877 50.1226 110.512 50.107 110.147C50.0913 109.783 50.0187 109.425 49.8935 109.097C49.6449 108.438 49.2052 107.93 48.6685 107.682C48.1318 107.434 47.5408 107.466 47.022 107.77C42.1828 110.36 37.9088 114.426 34.5712 119.616C31.2336 124.806 28.933 130.963 27.8693 137.553C27.811 137.909 27.8087 138.276 27.8628 138.634C27.9168 138.991 28.026 139.331 28.1838 139.633C28.3417 139.935 28.5451 140.194 28.7821 140.394C29.019 140.593 29.2847 140.73 29.5635 140.796V140.833Z" fill="white"/>
<path d="M103.619 164.018H26.8643C26.2931 164.018 25.7454 164.309 25.3415 164.827C24.9377 165.346 24.7107 166.049 24.7107 166.782C24.7107 167.515 24.9377 168.218 25.3415 168.737C25.7454 169.255 26.2931 169.547 26.8643 169.547H103.619C104.19 169.547 104.737 169.255 105.141 168.737C105.545 168.218 105.772 167.515 105.772 166.782C105.772 166.049 105.545 165.346 105.141 164.827C104.737 164.309 104.19 164.018 103.619 164.018Z" fill="white"/>
</svg>
