<svg width="219" height="183" viewBox="0 0 219 183" fill="none" xmlns="http://www.w3.org/2000/svg">
<path d="M184.237 179.211H35.07V23.1488C35.0782 18.0481 37.2153 13.1585 41.0127 9.55179C44.8102 5.94503 49.9583 3.91532 55.3287 3.90749H55.765C61.1354 3.91532 66.2836 5.94503 70.081 9.55179C73.8785 13.1585 76.0155 18.0481 76.0238 23.1488V37.7426H143.345V23.1488C143.353 18.0481 145.49 13.1585 149.288 9.55179C153.085 5.94503 158.233 3.91532 163.604 3.90749H164.04C169.411 3.91532 174.559 5.94503 178.356 9.55179C182.154 13.1585 184.291 18.0481 184.299 23.1488V179.181L184.237 179.211ZM163.978 0.029631H163.541C157.085 0.0374423 150.895 2.47479 146.327 6.80794C141.759 11.1411 139.185 17.0169 139.169 23.1488V33.8352H79.9508V23.1488C79.9508 17.0094 77.383 11.1214 72.8122 6.78016C68.2414 2.43892 62.0421 0 55.578 0H55.1417C48.7018 0.039054 42.5392 2.49426 37.9971 6.83044C33.455 11.1666 30.9016 17.0322 30.8936 23.1488V183H188.351V23.1488C188.351 17.0094 185.783 11.1214 181.212 6.78016C176.641 2.43892 170.442 0 163.978 0V0.029631Z" fill="white"/>
<path d="M44.7943 153.398H76.3979V166.689H44.7943V153.398ZM40.6802 170.597H80.512V149.461H40.6802V170.597Z" fill="white"/>
<path d="M143.283 153.398H174.886V166.689H143.283V153.398ZM139.169 170.597H179V149.461H139.169V170.597Z" fill="white"/>
<path d="M62.3102 37.9498H48.5654V21.8759C48.6829 20.2207 49.4579 18.6697 50.7338 17.5368C52.0097 16.4039 53.6912 15.7736 55.4378 15.7736C57.1845 15.7736 58.8659 16.4039 60.1418 17.5368C61.4177 18.6697 62.1928 20.2207 62.3102 21.8759V37.9498ZM66.4243 21.8759C66.0769 19.3615 64.7787 17.0529 62.7717 15.3804C60.7647 13.708 58.1857 12.7858 55.5157 12.7858C52.8457 12.7858 50.2668 13.708 48.2598 15.3804C46.2527 17.0529 44.9545 19.3615 44.6072 21.8759V41.8573H66.4243V21.8759Z" fill="white"/>
<path d="M170.554 37.9498H156.809V21.8759C156.927 20.2207 157.702 18.6697 158.978 17.5368C160.254 16.4039 161.935 15.7736 163.682 15.7736C165.428 15.7736 167.11 16.4039 168.386 17.5368C169.662 18.6697 170.437 20.2207 170.554 21.8759V37.9498ZM174.668 21.8759C174.321 19.3615 173.023 17.0529 171.016 15.3804C169.009 13.708 166.43 12.7858 163.76 12.7858C161.09 12.7858 158.511 13.708 156.504 15.3804C154.497 17.0529 153.198 19.3615 152.851 21.8759V41.8573H174.668V21.8759Z" fill="white"/>
<path d="M62.3102 84.8693H48.5654V68.7954C48.6829 67.1402 49.4579 65.5892 50.7338 64.4563C52.0097 63.3234 53.6912 62.6932 55.4378 62.6932C57.1845 62.6932 58.8659 63.3234 60.1418 64.4563C61.4177 65.5892 62.1928 67.1402 62.3102 68.7954V84.8693ZM66.4243 68.7954C66.0769 66.281 64.7787 63.9724 62.7717 62.3C60.7647 60.6275 58.1857 59.7053 55.5157 59.7053C52.8457 59.7053 50.2668 60.6275 48.2598 62.3C46.2527 63.9724 44.9545 66.281 44.6072 68.7954V88.7768H66.4243V68.7954Z" fill="white"/>
<path d="M98.4017 84.8689H84.6258V68.795C84.6258 67.0599 85.3515 65.3959 86.6432 64.1691C87.935 62.9422 89.687 62.253 91.5138 62.253C93.3406 62.253 95.0925 62.9422 96.3843 64.1691C97.676 65.3959 98.4017 67.0599 98.4017 68.795V84.8689ZM102.516 68.795C102.516 66.0236 101.357 63.3657 99.2934 61.4061C97.2301 59.4464 94.4317 58.3455 91.5138 58.3455C88.5958 58.3455 85.7974 59.4464 83.7341 61.4061C81.6709 63.3657 80.5117 66.0236 80.5117 68.795V88.7764H102.516V68.795Z" fill="white"/>
<path d="M134.494 84.8689H120.718V68.795C120.718 67.0599 121.443 65.3959 122.735 64.1691C124.027 62.9422 125.779 62.253 127.606 62.253C129.432 62.253 131.184 62.9422 132.476 64.1691C133.768 65.3959 134.494 67.0599 134.494 68.795V84.8689ZM138.608 68.795C138.608 66.0236 137.448 63.3657 135.385 61.4061C133.322 59.4464 130.523 58.3455 127.606 58.3455C124.688 58.3455 121.889 59.4464 119.826 61.4061C117.763 63.3657 116.604 66.0236 116.604 68.795V88.7764H138.608V68.795Z" fill="white"/>
<path d="M170.554 84.8693H156.809V68.7954C156.927 67.1402 157.702 65.5892 158.978 64.4563C160.254 63.3234 161.935 62.6932 163.682 62.6932C165.428 62.6932 167.11 63.3234 168.386 64.4563C169.662 65.5892 170.437 67.1402 170.554 68.7954V84.8693ZM174.668 68.7954C174.321 66.281 173.023 63.9724 171.016 62.3C169.009 60.6275 166.43 59.7053 163.76 59.7053C161.09 59.7053 158.511 60.6275 156.504 62.3C154.497 63.9724 153.198 66.281 152.851 68.7954V88.7768H174.668V68.7954Z" fill="white"/>
<path d="M48.5652 108.995C48.6826 107.34 49.4577 105.789 50.7336 104.656C52.0095 103.523 53.6909 102.893 55.4376 102.893C57.1842 102.893 58.8656 103.523 60.1415 104.656C61.4174 105.789 62.1925 107.34 62.3099 108.995V125.039H48.5652V108.995ZM44.4199 128.887H66.237V108.995C65.8897 106.48 64.5914 104.172 62.5844 102.499C60.5774 100.827 57.9985 99.9048 55.3285 99.9048C52.6585 99.9048 50.0796 100.827 48.0725 102.499C46.0655 104.172 44.7673 106.48 44.4199 108.995V128.947V128.887Z" fill="white"/>
<path d="M84.6258 108.995C84.6258 107.26 85.3515 105.596 86.6432 104.369C87.935 103.142 89.687 102.453 91.5138 102.453C93.3406 102.453 95.0925 103.142 96.3843 104.369C97.676 105.596 98.4017 107.26 98.4017 108.995V125.039H84.6258V108.995ZM80.5117 128.947H102.516V108.995C102.516 106.224 101.357 103.566 99.2934 101.606C97.2301 99.6463 94.4317 98.5454 91.5138 98.5454C88.5958 98.5454 85.7974 99.6463 83.7341 101.606C81.6709 103.566 80.5117 106.224 80.5117 108.995V128.947Z" fill="white"/>
<path d="M120.718 108.995C120.718 107.26 121.443 105.596 122.735 104.369C124.027 103.142 125.779 102.453 127.606 102.453C129.432 102.453 131.184 103.142 132.476 104.369C133.768 105.596 134.494 107.26 134.494 108.995V125.039H120.718V108.995ZM116.604 128.947H138.608V108.995C138.608 106.224 137.448 103.566 135.385 101.606C133.322 99.6463 130.523 98.5454 127.606 98.5454C124.688 98.5454 121.889 99.6463 119.826 101.606C117.763 103.566 116.604 106.224 116.604 108.995V128.947Z" fill="white"/>
<path d="M156.809 108.995C156.927 107.34 157.702 105.789 158.978 104.656C160.254 103.523 161.935 102.893 163.682 102.893C165.428 102.893 167.11 103.523 168.386 104.656C169.662 105.789 170.437 107.34 170.554 108.995V125.039H156.809V108.995ZM152.695 128.947H174.512V108.995C174.165 106.48 172.867 104.172 170.86 102.499C168.853 100.827 166.274 99.9048 163.604 99.9048C160.934 99.9048 158.355 100.827 156.348 102.499C154.341 104.172 153.043 106.48 152.695 108.995V128.947Z" fill="white"/>
<path d="M90.3296 175.304H94.4437V152.007H108.282V175.304H112.396V152.007H126.234V175.304H130.348V148.099H90.3296V175.304Z" fill="white"/>
<path d="M39.1218 52.0404H180.123V48.1329H39.1218V52.0404Z" fill="white"/>
<path d="M135.086 22.468C135.125 21.1582 135.261 19.8525 135.491 18.5605H83.7534C83.984 19.8525 84.1193 21.1582 84.1586 22.468H135.086Z" fill="white"/>
<path d="M39.1218 143.215H180.123V139.307H39.1218V143.215Z" fill="white"/>
</svg>
